<?xml version="1.0" encoding="UTF-8"?>
<svg xmlns="http://www.w3.org/2000/svg" version="1.1" viewBox="0 0 1409.16 871.74">
  <defs>
    <style>
      .cls-1 {
        fill: #1d1d1b;
      }

      .cls-2 {
        fill: #fff;
      }

      .cls-3 {
        fill: #932121;
      }
    </style>
  </defs>
  <!-- Generator: Adobe Illustrator 28.7.1, SVG Export Plug-In . SVG Version: 1.2.0 Build 142)  -->
  <g>
    <g id="Laag_1">
      <g>
        <g>
          <path class="cls-1" d="M987.42,35.7c-223.37,0-404.44,181.08-404.44,404.44s181.08,404.44,404.44,404.44,404.44-181.08,404.44-404.44S1210.79,35.7,987.42,35.7ZM987.42,471.85c-17.51,0-31.71-14.2-31.71-31.71s14.2-31.71,31.71-31.71,31.71,14.2,31.71,31.71-14.2,31.71-31.71,31.71Z"/>
          <path class="cls-2" d="M987.42,306.79c-73.65,0-133.36,59.71-133.36,133.36s59.71,133.36,133.36,133.36,133.36-59.71,133.36-133.36-59.71-133.36-133.36-133.36ZM987.42,471.85c-17.51,0-31.71-14.2-31.71-31.71s14.2-31.71,31.71-31.71,31.7,14.2,31.7,31.71-14.19,31.71-31.7,31.71Z"/>
        </g>
        <path class="cls-3" d="M8.16,0v871.74h871.74V0H8.16ZM547.58,553.53c-.12,9.16-3.54,12.65-12.82,12.67-32.72.08-65.44-.19-98.16.28-5.24.08-11.31,2.07-15.52,5.19-30.66,22.72-60.96,45.93-91.3,69.07-4.36,3.33-9.37,6.75-13.95,2.82-3.15-2.7-5.42-8.21-5.45-12.48-.35-57.4-.23-114.8-.24-172.2-.01-56.88-.01-113.76,0-170.65,0-13.42,2.45-15.9,15.94-15.9,69.08-.02,138.15-.03,207.23-.02,11.19,0,14.26,3.11,14.31,14.38.04,9.87.05,19.74,0,29.61-.07,13.1-6.82,17.05-18.69,10.99-61.74-31.54-134.95,1.35-150.22,68.44-9.57,42.07,3.24,78.07,36.85,104.9,33.14,26.46,70.32,30.14,109.08,12.82,18.76-8.38,22.95-6.1,22.98,14.36.01,8.57.07,17.14-.04,25.71ZM496.14,424.39c-.17,8.87-7.79,16.05-16.7,15.75-8.6-.28-15.65-7.47-15.72-16.04-.07-8.72,7.62-16.33,16.39-16.21,8.87.12,16.2,7.66,16.03,16.5ZM443.08,423.83c.04,9.09-7.05,16.25-16.11,16.26-8.94.01-16.36-7.45-16.19-16.26.18-8.94,7.62-16.07,16.59-15.9,8.64.17,15.67,7.28,15.71,15.9ZM533.24,440.11c-8.71.14-16.14-6.81-16.46-15.4-.33-9.02,6.81-16.6,15.87-16.82,8.65-.22,16.01,6.72,16.37,15.45.37,9.09-6.72,16.63-15.78,16.78Z"/>
      </g>
    </g>
  </g>
</svg>